<svg height="512" viewBox="0 0 64 64" width="512" xmlns="http://www.w3.org/2000/svg"><g id="Filled_outline" data-name="Filled outline"><path d="m61 25h-28l-16 16h28z" fill="#aabece"/><path d="m57 29 4-4h-7l-4 4z" fill="#aabece"/><path d="m46 33h7l4-4h-7z" fill="#cfdfe8"/><path d="m49 37 4-4h-7l-4 4z" fill="#aabece"/><path d="m45 41 4-4h-7l-4 4z" fill="#cfdfe8"/><path d="m50 29 4-4h-7l-4 4z" fill="#cfdfe8"/><path d="m39 33h7l4-4h-7z" fill="#aabece"/><path d="m42 37 4-4h-7l-4 4z" fill="#cfdfe8"/><path d="m38 41 4-4h-7l-4 4z" fill="#aabece"/><path d="m43 29 4-4h-7l-4 4z" fill="#aabece"/><path d="m32 33h7l4-4h-7z" fill="#cfdfe8"/><path d="m35 37 4-4h-7l-4 4z" fill="#aabece"/><path d="m31 41 4-4h-7l-4 4z" fill="#cfdfe8"/><path d="m36 29 4-4h-7l-4 4z" fill="#cfdfe8"/><path d="m25 33h7l4-4h-7z" fill="#aabece"/><path d="m28 37 4-4h-7l-4 4z" fill="#cfdfe8"/><path d="m24 41 4-4h-7l-4 4z" fill="#aabece"/><path d="m61 25-16 16h-28v4h30l14-14z" fill="#5a6470"/><path d="m34 45h6v12h-6z" fill="#32b1cc"/><path d="m24 57h26v4h-26z" fill="#2d75bb"/><circle cx="17" cy="17" fill="#f9bb4b" r="8"/><path d="m14 17h-2a5.006 5.006 0 0 1 5-5v2a3 3 0 0 0 -3 3z" fill="#e6f1fd"/><g fill="#fcf05a"><path d="m16 2h2v4h-2z"/><path d="m16 28h2v4h-2z"/><path d="m2 16h4v2h-4z"/><path d="m28 16h4v2h-4z"/><path d="m6.5 5.379h2v4.243h-2z" transform="matrix(.707 -.707 .707 .707 -3.107 7.5)"/><path d="m5.379 25.5h4.243v2h-4.243z" transform="matrix(.707 -.707 .707 .707 -16.542 13.065)"/><path d="m24.379 6.5h4.243v2h-4.243z" transform="matrix(.707 -.707 .707 .707 2.458 20.935)"/><path d="m25 24.586h2v2.828h-2z" transform="matrix(.707 -.707 .707 .707 -10.77 26)"/></g><path d="m62 60h-8a1 1 0 0 1 -1-1v-6h-13v-2h14a1 1 0 0 1 1 1v6h7z" fill="#87cee9"/><path d="m61 24h-28a1 1 0 0 0 -.707.293l-16 16a1.8 1.8 0 0 0 -.293.707v4a1 1 0 0 0 1 1h16v10h-9a1 1 0 0 0 -1 1v4a1 1 0 0 0 1 1h26a1 1 0 0 0 1-1v-4a1 1 0 0 0 -1-1h-9v-3h12v6a1 1 0 0 0 1 1h8v-2h-7v-6a1 1 0 0 0 -1-1h-13v-5h6a1 1 0 0 0 .707-.293l14-14a1 1 0 0 0 .293-.707v-6a1.843 1.843 0 0 0 -.076-.383 1 1 0 0 0 -.924-.617zm-6.586 2h4.172l-2 2h-4.172zm-24 10 2-2h4.172l-2 2zm2.172 2-2 2h-4.172l2-2zm1.828-6 2-2h4.172l-2 2zm1 6h4.172l-2 2h-4.172zm2-2 2-2h4.172l-2 2zm4-4 2-2h4.172l-2 2zm1 6h4.172l-2 2h-4.172zm2-2 2-2h4.172l-2 2zm4-4 2-2h4.172l-2 2zm-1-6h4.172l-2 2h-4.172zm-7 0h4.172l-2 2h-4.172zm-7 0h4.172l-2 2h-4.172zm-4 4h4.172l-2 2h-4.172zm-4 4h4.172l-2 2h-4.172zm-4 4h4.172l-2 2h-4.172zm27.586 20v2h-24v-2zm-14-2v-10h4v10zm25-25.414-13.414 13.414h-28.586v-2h27a1 1 0 0 0 .707-.293l14.293-14.293z"/><path d="m26 17a9 9 0 1 0 -9 9 9.01 9.01 0 0 0 9-9zm-9 7a7 7 0 1 1 7-7 7.009 7.009 0 0 1 -7 7z"/><path d="m12 17h2a3 3 0 0 1 3-3v-2a5.006 5.006 0 0 0 -5 5z"/><path d="m16 2h2v4h-2z"/><path d="m16 28h2v4h-2z"/><path d="m2 16h4v2h-4z"/><path d="m28 16h4v2h-4z"/><path d="m6.5 5.379h2v4.243h-2z" transform="matrix(.707 -.707 .707 .707 -3.107 7.5)"/><path d="m5.379 25.5h4.243v2h-4.243z" transform="matrix(.707 -.707 .707 .707 -16.542 13.065)"/><path d="m24.379 6.5h4.243v2h-4.243z" transform="matrix(.707 -.707 .707 .707 2.458 20.935)"/><path d="m25 24.586h2v2.828h-2z" transform="matrix(.707 -.707 .707 .707 -10.77 26)"/></g></svg>